<svg width="300" height="300" xmlns="http://www.w3.org/2000/svg">
 <!-- Generator: Sketch 62 (91390) - https://sketch.com -->

 <title>1 and 2 and 3 and 4</title>
 <desc>Created with Sketch.</desc>
 <g>
  <title>background</title>
  <rect fill="none" id="canvas_background" height="302" width="302" y="-1" x="-1"/>
 </g>
 <g>
  <title>Layer 1</title>
  <g fill-rule="evenodd" fill="none" id="Page-1">
   <g stroke="null" fill="#FFFFFF" id="Group-10">
    <path stroke="null" id="1-and-2-and-3-and-4" d="m83.58867,293.91388l-0.13176,-0.01698l0,0l-0.05652,-0.00825l-7.91466,-1.09573l-0.03688,-0.00485l-0.05532,-0.00873l-0.05241,-0.00776l-7.91935,-1.2251l0,0l-0.39711,-0.06668l-7.57886,-1.29954l-0.15334,-0.02717l-2.57616,-0.46875c-0.88649,-0.16401 -1.77218,-0.33032 -2.65705,-0.49892l-2.65215,-0.51266l-0.41459,-0.08319l-7.33137,-1.50044l-0.41146,-0.08564l0,0l-7.59637,-1.68169l-0.13393,-0.03009l-0.33968,-0.07861l-7.38378,-1.75957l-0.24166,-0.0592l-0.14849,-0.03688l-7.42939,-1.89641l-0.29769,-0.07743l-0.97001,-0.25704c-11.12991,-41.83573 -17.06169,-85.78842 -17.06169,-131.12656c0,-45.3396 5.93217,-89.29367 17.06269,-131.12839c41.8395,-11.12932 85.79022,-17.06055 131.12624,-17.06055c45.33743,0 89.28948,5.9316 131.12599,17.05957c11.13042,41.83298 17.06295,85.78836 17.06295,131.12937c0,45.33568 -5.93114,89.28607 -17.05979,131.11754c-2.83043,0.76159 -5.67354,1.49162 -8.52615,2.19758l-1.01904,0.24808l-6.86773,1.63452l0,0l-1.27015,0.28906l-6.68919,1.47853l0,0c-2.62405,0.56057 -5.25558,1.10089 -7.89442,1.6208l0.00079,0.00125l-0.92233,0.17786l-7.18427,1.34938l0,0l-0.82647,0.1462l-7.18094,1.22966l-0.09705,0.01553l-2.65073,0.42682c-1.80239,0.28479 -3.60793,0.56012 -5.41656,0.82592l0.0001,0.00062l-0.37156,0.05297l-7.70017,1.06564l-0.2721,0.03687l0,0l0.12304,-0.01647l-0.67104,0.08539l-2.18935,0.27954l0,0l-2.35758,0.28725l-0.15224,0.01865l0,0l-0.02052,0.00173l-0.21152,0.0263l0,0l-1.93432,0.22507l-0.5252,0.06134l0,0l0.0477,-0.00602l-0.07861,0.00971l-0.04853,0.00485l-2.66793,0.29748c-1.83304,0.19913 -3.66899,0.38854 -5.50783,0.56814l-0.00063,0.00026l-0.25944,0.0241l-7.96804,0.7114l-0.21546,0.01747l-8.0215,0.58694l0,0l-0.47935,0.02935l-7.86419,0.44547l-0.07473,0.00388l-0.03397,0.00097l-0.02135,0.00097l-8.22523,0.33386l-0.08541,0.00291l-0.1349,0.00485l-0.00582,0l-8.16117,0.19799l-0.13468,0.0034l-8.36138,0.06734l-8.36131,-0.06734l-0.14045,-0.0034l-8.18738,-0.19896l-0.03392,-0.00003l0,0l0.02033,0.00003l0.01359,0l0.58911,0.01747l-0.6027,-0.01747l-0.05823,-0.00194l-0.08534,-0.00208l0,0l0.03002,0.00014l0.05532,0.00194l0.0379,0.00191l-0.09322,-0.00385l-0.1087,-0.00388l-8.10391,-0.32804l-0.13854,-0.00627l0,0l0.05315,0.00258l-2.74061,-0.14058l0,0l-0.10402,-0.00616l-0.01738,-0.0004c-0.93562,-0.05072 -1.87057,-0.10396 -2.80484,-0.15973l-1.09872,-0.06892l-1.44472,-0.08924l0,0l-2.78087,-0.18743l0,0l-0.20967,-0.01475l0,0l-1.22097,-0.09l-1.34612,-0.09757l0,0l-0.14461,-0.0121l-0.01754,-0.00017c-0.90908,-0.06901 -1.8175,-0.14041 -2.72524,-0.21419l0.0003,0.00002c-4.6155,-0.37515 -9.21338,-0.81189 -13.79297,-1.30941l-2.68586,-0.29987l-0.1087,-0.01262l-7.74385,-0.94432l-0.26301,-0.03397l0.11646,0.01553z"/>
   </g>
  </g>
 </g>
</svg>