<?xml version="1.0" encoding="UTF-8"?>
<svg width="306px" height="307px" viewBox="0 0 306 307" version="1.1" xmlns="http://www.w3.org/2000/svg" xmlns:xlink="http://www.w3.org/1999/xlink">
    <!-- Generator: Sketch 62 (91390) - https://sketch.com -->
    <title>1 and 2 and 3 and 4</title>
    <desc>Created with Sketch.</desc>
    <g id="Page-1" stroke="none" stroke-width="1" fill="none" fill-rule="evenodd">
        <g id="Group-10" transform="translate(-743.637174, -742.000000)" fill="#FFFFFF">
            <path d="M828.076973,1043.78406 L827.941206,1043.76656 L827.941206,1043.76656 L827.882973,1043.75806 L819.727973,1042.62906 L819.689973,1042.62406 L819.632973,1042.61506 L819.578973,1042.60706 L811.419138,1041.34476 L811.419138,1041.34476 L811.009973,1041.27606 L803.200973,1039.93706 L803.042973,1039.90906 L800.388578,1039.42608 C799.475166,1039.25709 798.562584,1039.08573 797.65084,1038.91201 L794.918155,1038.38378 L794.490973,1038.29806 L786.936973,1036.75206 L786.513021,1036.66382 L786.513021,1036.66382 L778.685973,1034.93106 L778.547973,1034.90006 L778.197973,1034.81906 L770.589973,1033.00606 L770.340973,1032.94506 L770.187973,1032.90706 L762.532973,1030.95306 L762.226245,1030.87328 L761.226772,1030.60843 C749.758884,987.502287 743.646973,942.2149 743.646973,895.5 C743.646973,848.783586 749.75928,803.494778 761.227796,760.389675 C804.337831,748.922404 849.623181,742.81106 896.335913,742.81106 C943.050094,742.81106 988.336806,748.922783 1031.44376,760.388674 C1042.91217,803.491975 1049.02485,848.78214 1049.02485,895.5 C1049.02485,942.212372 1042.9136,987.497386 1031.44701,1030.59914 C1028.53063,1031.38386 1025.60118,1032.13606 1022.66195,1032.86345 L1021.61197,1033.11906 L1014.53569,1034.80322 L1014.53569,1034.80322 L1013.22697,1035.10106 L1006.33465,1036.62449 L1006.33465,1036.62449 C1003.63092,1037.20208 1000.91948,1037.75881 998.200497,1038.29451 L998.201307,1038.2958 L997.250973,1038.47906 L989.848542,1039.86942 L989.848542,1039.86942 L988.996973,1040.02006 L981.597973,1041.28706 L981.497973,1041.30306 L978.766755,1041.74284 C976.909627,1042.03628 975.049261,1042.31997 973.18571,1042.59384 L973.185812,1042.59448 L972.802973,1042.64906 L964.868973,1043.74706 L964.588612,1043.78505 L964.588612,1043.78505 L964.715386,1043.76808 L964.023973,1043.85606 L961.768141,1044.14409 L961.768141,1044.14409 L959.338973,1044.44006 L959.182108,1044.45928 L959.182108,1044.45928 L959.160973,1044.46106 L958.943025,1044.48816 L958.943025,1044.48816 L956.949973,1044.72006 L956.408816,1044.78326 L956.408816,1044.78326 L956.457973,1044.77706 L956.376973,1044.78706 L956.326973,1044.79206 L953.578023,1045.09857 C951.689319,1045.30375 949.797606,1045.49891 947.902939,1045.68396 L947.902292,1045.68423 L947.634973,1045.70906 L939.424973,1046.44206 L939.202973,1046.46006 L930.937876,1047.06482 L930.937876,1047.06482 L930.443973,1047.09506 L922.340973,1047.55406 L922.263973,1047.55806 L922.228973,1047.55906 L922.206973,1047.56006 L913.731973,1047.90406 L913.643973,1047.90706 L913.504973,1047.91206 L913.498973,1047.91206 L905.089973,1048.11606 L904.951205,1048.11956 L896.335913,1048.18894 L887.720688,1048.11956 L887.575973,1048.11606 L879.139973,1047.91106 L879.105023,1047.91103 L879.105023,1047.91103 L879.125973,1047.91106 L879.139973,1047.91106 L879.746973,1047.92906 L879.125973,1047.91106 L879.065973,1047.90906 L878.978036,1047.90692 L878.978036,1047.90692 L879.008973,1047.90706 L879.065973,1047.90906 L879.105023,1047.91103 L879.008973,1047.90706 L878.896973,1047.90306 L870.546973,1047.56506 L870.404224,1047.5586 L870.404224,1047.5586 L870.458985,1047.56126 L867.635147,1047.41641 L867.635147,1047.41641 L867.527973,1047.41006 L867.510058,1047.40965 C866.546027,1047.35739 865.582688,1047.30253 864.62005,1047.24507 L863.487973,1047.17406 L861.999378,1047.08211 L861.999378,1047.08211 L859.134058,1046.88899 L859.134058,1046.88899 L858.918025,1046.87379 L858.918025,1046.87379 L857.659973,1046.78106 L856.272967,1046.68053 L856.272967,1046.68053 L856.123973,1046.66806 L856.105898,1046.66788 C855.169209,1046.59677 854.233207,1046.52321 853.2979,1046.44719 L853.298205,1046.44721 C848.542545,1046.06067 843.805049,1045.61067 839.086389,1045.09804 L836.318973,1044.78906 L836.206973,1044.77606 L828.227973,1043.80306 L827.956973,1043.76806 L828.076973,1043.78406 Z" id="1-and-2-and-3-and-4"></path>
        </g>
    </g>
</svg>